<mxfile host="app.diagrams.net" agent="Mozilla/5.0 (Windows NT 10.0; Win64; x64) AppleWebKit/537.36 (KHTML, like Gecko) Chrome/134.0.0.0 Safari/537.36" version="26.1.1">
  <diagram name="第 1 页" id="6fo6g9IYqGphzM_Jau_f">
    <mxGraphModel dx="4284" dy="2124" grid="1" gridSize="10" guides="1" tooltips="1" connect="1" arrows="1" fold="1" page="1" pageScale="1" pageWidth="827" pageHeight="1169" math="0" shadow="0">
      <root>
        <mxCell id="0" />
        <mxCell id="1" parent="0" />
        <mxCell id="yJXc712W39ZJ6HGPl1zp-3" value="&lt;span style=&quot;font-size: 21px;&quot;&gt;PrepareTick&lt;/span&gt;" style="rounded=1;whiteSpace=wrap;html=1;" parent="1" vertex="1">
          <mxGeometry y="400" width="180" height="64.23" as="geometry" />
        </mxCell>
        <mxCell id="yJXc712W39ZJ6HGPl1zp-2" value="&lt;span style=&quot;font-size: 21px;&quot;&gt;AdvanceOneTimeStepImpl&lt;/span&gt;" style="rounded=1;whiteSpace=wrap;html=1;" parent="1" vertex="1">
          <mxGeometry x="-50" y="520" width="290" height="83.94" as="geometry" />
        </mxCell>
        <mxCell id="yJXc712W39ZJ6HGPl1zp-4" value="&lt;span style=&quot;font-size: 21px;&quot;&gt;UnprepareTick&lt;/span&gt;" style="rounded=1;whiteSpace=wrap;html=1;" parent="1" vertex="1">
          <mxGeometry x="-40" y="690" width="240" height="78.27" as="geometry" />
        </mxCell>
        <mxCell id="yJXc712W39ZJ6HGPl1zp-1" value="&lt;div&gt;&lt;font style=&quot;font-size: 21px;&quot;&gt;AdvanceOneTimeStep&lt;/font&gt;&lt;/div&gt;" style="rounded=1;whiteSpace=wrap;html=1;" parent="1" vertex="1">
          <mxGeometry x="-380" y="510" width="273.97" height="75.58" as="geometry" />
        </mxCell>
        <mxCell id="yJXc712W39ZJ6HGPl1zp-10" value="&lt;font style=&quot;font-size: 20px;&quot;&gt;FPBDRigidsEvolutionGBF&lt;/font&gt;" style="swimlane;whiteSpace=wrap;html=1;startSize=80;" parent="1" vertex="1">
          <mxGeometry x="-413" y="270" width="733" height="600" as="geometry" />
        </mxCell>
        <mxCell id="UburldHWFSXOT04M9yOC-9" value="" style="swimlane;startSize=0;dashed=1;dashPattern=8 8;swimlaneFillColor=none;" vertex="1" parent="1">
          <mxGeometry x="-1930" y="-210" width="360" height="310" as="geometry">
            <mxRectangle x="-1420" y="220" width="50" height="40" as="alternateBounds" />
          </mxGeometry>
        </mxCell>
        <mxCell id="UburldHWFSXOT04M9yOC-1" value="&lt;div&gt;&lt;font style=&quot;font-size: 18px;&quot;&gt;PushDataTask&lt;/font&gt;&lt;/div&gt;" style="rounded=1;whiteSpace=wrap;html=1;" vertex="1" parent="UburldHWFSXOT04M9yOC-9">
          <mxGeometry x="55" y="40" width="270" height="60" as="geometry" />
        </mxCell>
        <mxCell id="UburldHWFSXOT04M9yOC-4" value="&lt;div&gt;&lt;font style=&quot;font-size: 18px;&quot;&gt;FrozenGTPreSimCallbacks&lt;/font&gt;&lt;/div&gt;" style="rounded=1;whiteSpace=wrap;html=1;" vertex="1" parent="UburldHWFSXOT04M9yOC-9">
          <mxGeometry x="55" y="140" width="270" height="60" as="geometry" />
        </mxCell>
        <mxCell id="UburldHWFSXOT04M9yOC-12" style="edgeStyle=orthogonalEdgeStyle;rounded=0;orthogonalLoop=1;jettySize=auto;html=1;exitX=0.5;exitY=1;exitDx=0;exitDy=0;" edge="1" parent="UburldHWFSXOT04M9yOC-9" source="UburldHWFSXOT04M9yOC-1" target="UburldHWFSXOT04M9yOC-4">
          <mxGeometry relative="1" as="geometry" />
        </mxCell>
        <mxCell id="UburldHWFSXOT04M9yOC-5" value="&lt;div&gt;&lt;font style=&quot;font-size: 18px;&quot;&gt;SolverAdvanceTask&lt;/font&gt;&lt;/div&gt;" style="rounded=1;whiteSpace=wrap;html=1;" vertex="1" parent="UburldHWFSXOT04M9yOC-9">
          <mxGeometry x="65" y="230" width="260" height="60" as="geometry" />
        </mxCell>
        <mxCell id="UburldHWFSXOT04M9yOC-7" style="edgeStyle=orthogonalEdgeStyle;rounded=0;orthogonalLoop=1;jettySize=auto;html=1;exitX=0.5;exitY=1;exitDx=0;exitDy=0;entryX=0.5;entryY=0;entryDx=0;entryDy=0;" edge="1" parent="UburldHWFSXOT04M9yOC-9" source="UburldHWFSXOT04M9yOC-4" target="UburldHWFSXOT04M9yOC-5">
          <mxGeometry relative="1" as="geometry" />
        </mxCell>
        <mxCell id="UburldHWFSXOT04M9yOC-16" value="" style="swimlane;startSize=0;dashed=1;dashPattern=8 8;swimlaneFillColor=none;" vertex="1" parent="1">
          <mxGeometry x="-1500" y="-210" width="360" height="310" as="geometry">
            <mxRectangle x="-1420" y="220" width="50" height="40" as="alternateBounds" />
          </mxGeometry>
        </mxCell>
        <mxCell id="UburldHWFSXOT04M9yOC-17" value="&lt;div&gt;&lt;font style=&quot;font-size: 18px;&quot;&gt;PushDataTask&lt;/font&gt;&lt;/div&gt;" style="rounded=1;whiteSpace=wrap;html=1;" vertex="1" parent="UburldHWFSXOT04M9yOC-16">
          <mxGeometry x="55" y="40" width="270" height="60" as="geometry" />
        </mxCell>
        <mxCell id="UburldHWFSXOT04M9yOC-18" value="&lt;div&gt;&lt;font style=&quot;font-size: 18px;&quot;&gt;FrozenGTPreSimCallbacks&lt;/font&gt;&lt;/div&gt;" style="rounded=1;whiteSpace=wrap;html=1;" vertex="1" parent="UburldHWFSXOT04M9yOC-16">
          <mxGeometry x="55" y="140" width="270" height="60" as="geometry" />
        </mxCell>
        <mxCell id="UburldHWFSXOT04M9yOC-19" style="edgeStyle=orthogonalEdgeStyle;rounded=0;orthogonalLoop=1;jettySize=auto;html=1;exitX=0.5;exitY=1;exitDx=0;exitDy=0;" edge="1" parent="UburldHWFSXOT04M9yOC-16" source="UburldHWFSXOT04M9yOC-17" target="UburldHWFSXOT04M9yOC-18">
          <mxGeometry relative="1" as="geometry" />
        </mxCell>
        <mxCell id="UburldHWFSXOT04M9yOC-20" value="&lt;div&gt;&lt;font style=&quot;font-size: 18px;&quot;&gt;SolverAdvanceTask&lt;/font&gt;&lt;/div&gt;" style="rounded=1;whiteSpace=wrap;html=1;" vertex="1" parent="UburldHWFSXOT04M9yOC-16">
          <mxGeometry x="65" y="230" width="260" height="60" as="geometry" />
        </mxCell>
        <mxCell id="UburldHWFSXOT04M9yOC-21" style="edgeStyle=orthogonalEdgeStyle;rounded=0;orthogonalLoop=1;jettySize=auto;html=1;exitX=0.5;exitY=1;exitDx=0;exitDy=0;entryX=0.5;entryY=0;entryDx=0;entryDy=0;" edge="1" parent="UburldHWFSXOT04M9yOC-16" source="UburldHWFSXOT04M9yOC-18" target="UburldHWFSXOT04M9yOC-20">
          <mxGeometry relative="1" as="geometry" />
        </mxCell>
        <mxCell id="UburldHWFSXOT04M9yOC-22" value="" style="swimlane;startSize=0;dashed=1;dashPattern=8 8;swimlaneFillColor=none;" vertex="1" parent="1">
          <mxGeometry x="-1080" y="-210" width="360" height="310" as="geometry">
            <mxRectangle x="-1420" y="220" width="50" height="40" as="alternateBounds" />
          </mxGeometry>
        </mxCell>
        <mxCell id="UburldHWFSXOT04M9yOC-23" value="&lt;div&gt;&lt;font style=&quot;font-size: 18px;&quot;&gt;PushDataTask&lt;/font&gt;&lt;/div&gt;" style="rounded=1;whiteSpace=wrap;html=1;" vertex="1" parent="UburldHWFSXOT04M9yOC-22">
          <mxGeometry x="55" y="40" width="270" height="60" as="geometry" />
        </mxCell>
        <mxCell id="UburldHWFSXOT04M9yOC-24" value="&lt;div&gt;&lt;font style=&quot;font-size: 18px;&quot;&gt;FrozenGTPreSimCallbacks&lt;/font&gt;&lt;/div&gt;" style="rounded=1;whiteSpace=wrap;html=1;" vertex="1" parent="UburldHWFSXOT04M9yOC-22">
          <mxGeometry x="55" y="140" width="270" height="60" as="geometry" />
        </mxCell>
        <mxCell id="UburldHWFSXOT04M9yOC-25" style="edgeStyle=orthogonalEdgeStyle;rounded=0;orthogonalLoop=1;jettySize=auto;html=1;exitX=0.5;exitY=1;exitDx=0;exitDy=0;" edge="1" parent="UburldHWFSXOT04M9yOC-22" source="UburldHWFSXOT04M9yOC-23" target="UburldHWFSXOT04M9yOC-24">
          <mxGeometry relative="1" as="geometry" />
        </mxCell>
        <mxCell id="UburldHWFSXOT04M9yOC-26" value="&lt;div&gt;&lt;font style=&quot;font-size: 18px;&quot;&gt;SolverAdvanceTask&lt;/font&gt;&lt;/div&gt;" style="rounded=1;whiteSpace=wrap;html=1;" vertex="1" parent="UburldHWFSXOT04M9yOC-22">
          <mxGeometry x="65" y="230" width="260" height="60" as="geometry" />
        </mxCell>
        <mxCell id="UburldHWFSXOT04M9yOC-27" style="edgeStyle=orthogonalEdgeStyle;rounded=0;orthogonalLoop=1;jettySize=auto;html=1;exitX=0.5;exitY=1;exitDx=0;exitDy=0;entryX=0.5;entryY=0;entryDx=0;entryDy=0;" edge="1" parent="UburldHWFSXOT04M9yOC-22" source="UburldHWFSXOT04M9yOC-24" target="UburldHWFSXOT04M9yOC-26">
          <mxGeometry relative="1" as="geometry" />
        </mxCell>
        <mxCell id="UburldHWFSXOT04M9yOC-28" value="" style="curved=1;endArrow=classic;html=1;rounded=0;exitX=0.5;exitY=1;exitDx=0;exitDy=0;entryX=0.5;entryY=0;entryDx=0;entryDy=0;" edge="1" parent="1" source="UburldHWFSXOT04M9yOC-9" target="UburldHWFSXOT04M9yOC-16">
          <mxGeometry width="50" height="50" relative="1" as="geometry">
            <mxPoint x="-1200" y="130" as="sourcePoint" />
            <mxPoint x="-1150" y="80" as="targetPoint" />
            <Array as="points">
              <mxPoint x="-1730" y="180" />
              <mxPoint x="-1570" y="190" />
              <mxPoint x="-1540" y="60" />
              <mxPoint x="-1540" y="-80" />
              <mxPoint x="-1540" y="-250" />
              <mxPoint x="-1320" y="-260" />
            </Array>
          </mxGeometry>
        </mxCell>
        <mxCell id="UburldHWFSXOT04M9yOC-29" value="" style="curved=1;endArrow=classic;html=1;rounded=0;exitX=0.5;exitY=1;exitDx=0;exitDy=0;entryX=0.5;entryY=0;entryDx=0;entryDy=0;" edge="1" parent="1">
          <mxGeometry width="50" height="50" relative="1" as="geometry">
            <mxPoint x="-1310" y="100" as="sourcePoint" />
            <mxPoint x="-880" y="-210" as="targetPoint" />
            <Array as="points">
              <mxPoint x="-1290" y="180" />
              <mxPoint x="-1130" y="190" />
              <mxPoint x="-1100" y="60" />
              <mxPoint x="-1100" y="-80" />
              <mxPoint x="-1100" y="-250" />
              <mxPoint x="-880" y="-260" />
            </Array>
          </mxGeometry>
        </mxCell>
        <mxCell id="UburldHWFSXOT04M9yOC-30" value="&lt;font style=&quot;font-size: 24px;&quot;&gt;IntervalStep = 1&lt;/font&gt;" style="text;html=1;align=center;verticalAlign=middle;whiteSpace=wrap;rounded=0;" vertex="1" parent="1">
          <mxGeometry x="-1850" y="-340" width="180" height="60" as="geometry" />
        </mxCell>
        <mxCell id="UburldHWFSXOT04M9yOC-31" value="&lt;font style=&quot;font-size: 24px;&quot;&gt;IntervalStep = 2&lt;/font&gt;" style="text;html=1;align=center;verticalAlign=middle;whiteSpace=wrap;rounded=0;" vertex="1" parent="1">
          <mxGeometry x="-1410" y="-340" width="180" height="60" as="geometry" />
        </mxCell>
        <mxCell id="UburldHWFSXOT04M9yOC-32" value="&lt;font style=&quot;font-size: 24px;&quot;&gt;IntervalStep = 3&lt;/font&gt;" style="text;html=1;align=center;verticalAlign=middle;whiteSpace=wrap;rounded=0;" vertex="1" parent="1">
          <mxGeometry x="-988.5" y="-350" width="177" height="70" as="geometry" />
        </mxCell>
        <mxCell id="UburldHWFSXOT04M9yOC-34" value="遍历MidPhase粒子对" style="rounded=1;whiteSpace=wrap;html=1;fontSize=12;glass=0;strokeWidth=1;shadow=0;" vertex="1" parent="1">
          <mxGeometry x="-2030" y="409.23" width="134" height="45.77" as="geometry" />
        </mxCell>
        <mxCell id="UburldHWFSXOT04M9yOC-39" style="edgeStyle=orthogonalEdgeStyle;rounded=0;orthogonalLoop=1;jettySize=auto;html=1;exitX=0.5;exitY=1;exitDx=0;exitDy=0;exitPerimeter=0;entryX=0.5;entryY=0;entryDx=0;entryDy=0;" edge="1" parent="1" source="UburldHWFSXOT04M9yOC-36" target="UburldHWFSXOT04M9yOC-38">
          <mxGeometry relative="1" as="geometry" />
        </mxCell>
        <mxCell id="UburldHWFSXOT04M9yOC-41" value="Yes" style="edgeLabel;html=1;align=center;verticalAlign=middle;resizable=0;points=[];" vertex="1" connectable="0" parent="UburldHWFSXOT04M9yOC-39">
          <mxGeometry x="-0.2683" y="-3" relative="1" as="geometry">
            <mxPoint x="-14" as="offset" />
          </mxGeometry>
        </mxCell>
        <mxCell id="UburldHWFSXOT04M9yOC-36" value="&lt;div&gt;DoBoundsOverlap&lt;br&gt;执行Bounds相交检测&lt;/div&gt;" style="strokeWidth=2;html=1;shape=mxgraph.flowchart.decision;whiteSpace=wrap;" vertex="1" parent="1">
          <mxGeometry x="-2040.25" y="490" width="154.5" height="103.03" as="geometry" />
        </mxCell>
        <mxCell id="UburldHWFSXOT04M9yOC-37" style="edgeStyle=orthogonalEdgeStyle;rounded=0;orthogonalLoop=1;jettySize=auto;html=1;exitX=0.5;exitY=1;exitDx=0;exitDy=0;entryX=0.5;entryY=0;entryDx=0;entryDy=0;entryPerimeter=0;" edge="1" parent="1" source="UburldHWFSXOT04M9yOC-34" target="UburldHWFSXOT04M9yOC-36">
          <mxGeometry relative="1" as="geometry" />
        </mxCell>
        <mxCell id="UburldHWFSXOT04M9yOC-43" style="edgeStyle=orthogonalEdgeStyle;rounded=0;orthogonalLoop=1;jettySize=auto;html=1;exitX=0.5;exitY=1;exitDx=0;exitDy=0;" edge="1" parent="1" source="UburldHWFSXOT04M9yOC-38" target="UburldHWFSXOT04M9yOC-42">
          <mxGeometry relative="1" as="geometry" />
        </mxCell>
        <mxCell id="UburldHWFSXOT04M9yOC-38" value="创建碰撞约束" style="rounded=1;whiteSpace=wrap;html=1;fontSize=12;glass=0;strokeWidth=1;shadow=0;" vertex="1" parent="1">
          <mxGeometry x="-2029.63" y="630" width="134" height="45.77" as="geometry" />
        </mxCell>
        <mxCell id="UburldHWFSXOT04M9yOC-45" style="edgeStyle=orthogonalEdgeStyle;rounded=0;orthogonalLoop=1;jettySize=auto;html=1;exitX=0.5;exitY=1;exitDx=0;exitDy=0;exitPerimeter=0;entryX=0.5;entryY=0;entryDx=0;entryDy=0;" edge="1" parent="1" source="UburldHWFSXOT04M9yOC-44" target="UburldHWFSXOT04M9yOC-48">
          <mxGeometry relative="1" as="geometry">
            <mxPoint x="-1963" y="1050" as="sourcePoint" />
            <mxPoint x="-1962.5555555555557" y="1120" as="targetPoint" />
          </mxGeometry>
        </mxCell>
        <mxCell id="UburldHWFSXOT04M9yOC-46" value="Yes" style="edgeLabel;html=1;align=center;verticalAlign=middle;resizable=0;points=[];" vertex="1" connectable="0" parent="UburldHWFSXOT04M9yOC-45">
          <mxGeometry x="0.0605" y="-2" relative="1" as="geometry">
            <mxPoint x="-25" y="-2" as="offset" />
          </mxGeometry>
        </mxCell>
        <mxCell id="UburldHWFSXOT04M9yOC-42" value="Collisions::UpdateConstraint&lt;br&gt;执行精细化碰撞检测&lt;br&gt;计算两个凸体之间的ManifoldPoint" style="rounded=1;whiteSpace=wrap;html=1;fontSize=12;glass=0;strokeWidth=1;shadow=0;" vertex="1" parent="1">
          <mxGeometry x="-2058" y="720" width="190" height="50" as="geometry" />
        </mxCell>
        <mxCell id="UburldHWFSXOT04M9yOC-44" value="&lt;div&gt;最近接触点ManifoldPoint的Phi&lt;br&gt;是否小于CullDistance&lt;/div&gt;" style="strokeWidth=2;html=1;shape=mxgraph.flowchart.decision;whiteSpace=wrap;" vertex="1" parent="1">
          <mxGeometry x="-2075.63" y="820" width="225.25" height="120" as="geometry" />
        </mxCell>
        <mxCell id="UburldHWFSXOT04M9yOC-47" style="edgeStyle=orthogonalEdgeStyle;rounded=0;orthogonalLoop=1;jettySize=auto;html=1;exitX=0.5;exitY=1;exitDx=0;exitDy=0;entryX=0.5;entryY=0;entryDx=0;entryDy=0;entryPerimeter=0;" edge="1" parent="1" source="UburldHWFSXOT04M9yOC-42" target="UburldHWFSXOT04M9yOC-44">
          <mxGeometry relative="1" as="geometry" />
        </mxCell>
        <mxCell id="UburldHWFSXOT04M9yOC-48" value="确认碰撞相交后，激活碰撞约束" style="rounded=1;whiteSpace=wrap;html=1;fontSize=12;glass=0;strokeWidth=1;shadow=0;" vertex="1" parent="1">
          <mxGeometry x="-2058" y="990" width="190" height="50" as="geometry" />
        </mxCell>
        <mxCell id="UburldHWFSXOT04M9yOC-58" style="edgeStyle=orthogonalEdgeStyle;rounded=0;orthogonalLoop=1;jettySize=auto;html=1;exitX=0.5;exitY=1;exitDx=0;exitDy=0;entryX=0.5;entryY=0;entryDx=0;entryDy=0;" edge="1" parent="1" source="UburldHWFSXOT04M9yOC-49" target="UburldHWFSXOT04M9yOC-56">
          <mxGeometry relative="1" as="geometry" />
        </mxCell>
        <mxCell id="UburldHWFSXOT04M9yOC-49" value="根据约束的两个粒子创建新的边Edge" style="rounded=1;whiteSpace=wrap;html=1;fontSize=12;glass=0;strokeWidth=1;shadow=0;" vertex="1" parent="1">
          <mxGeometry x="-1623.69" y="417.6" width="172.63" height="46.63" as="geometry" />
        </mxCell>
        <mxCell id="UburldHWFSXOT04M9yOC-53" style="rounded=0;orthogonalLoop=1;jettySize=auto;html=1;exitX=1;exitY=0.5;exitDx=0;exitDy=0;exitPerimeter=0;entryX=0;entryY=0.5;entryDx=0;entryDy=0;" edge="1" parent="1" source="UburldHWFSXOT04M9yOC-52" target="UburldHWFSXOT04M9yOC-55">
          <mxGeometry relative="1" as="geometry">
            <mxPoint x="-1277.38" y="986.63" as="targetPoint" />
          </mxGeometry>
        </mxCell>
        <mxCell id="UburldHWFSXOT04M9yOC-54" value="Yes" style="edgeLabel;html=1;align=center;verticalAlign=middle;resizable=0;points=[];" vertex="1" connectable="0" parent="UburldHWFSXOT04M9yOC-53">
          <mxGeometry x="0.2082" y="2" relative="1" as="geometry">
            <mxPoint x="-9" y="-22" as="offset" />
          </mxGeometry>
        </mxCell>
        <mxCell id="UburldHWFSXOT04M9yOC-52" value="如果Island0和Island1&lt;div&gt;相等且不为空&lt;/div&gt;" style="strokeWidth=2;html=1;shape=mxgraph.flowchart.decision;whiteSpace=wrap;" vertex="1" parent="1">
          <mxGeometry x="-1621.0600000000002" y="610" width="170" height="120" as="geometry" />
        </mxCell>
        <mxCell id="UburldHWFSXOT04M9yOC-87" style="edgeStyle=orthogonalEdgeStyle;rounded=0;orthogonalLoop=1;jettySize=auto;html=1;exitX=1;exitY=0.5;exitDx=0;exitDy=0;entryX=0.5;entryY=0;entryDx=0;entryDy=0;" edge="1" parent="1" source="UburldHWFSXOT04M9yOC-55" target="UburldHWFSXOT04M9yOC-83">
          <mxGeometry relative="1" as="geometry" />
        </mxCell>
        <mxCell id="UburldHWFSXOT04M9yOC-55" value="返回Island0" style="rounded=1;whiteSpace=wrap;html=1;fontSize=12;glass=0;strokeWidth=1;shadow=0;" vertex="1" parent="1">
          <mxGeometry x="-1330.0000000000002" y="647.12" width="134" height="45.77" as="geometry" />
        </mxCell>
        <mxCell id="UburldHWFSXOT04M9yOC-56" value="获取Edge对应的两个Node的Island&lt;br&gt;Island0 和 Island1" style="rounded=1;whiteSpace=wrap;html=1;fontSize=12;glass=0;strokeWidth=1;shadow=0;" vertex="1" parent="1">
          <mxGeometry x="-1637.37" y="506.63" width="200" height="65" as="geometry" />
        </mxCell>
        <mxCell id="UburldHWFSXOT04M9yOC-59" style="edgeStyle=orthogonalEdgeStyle;rounded=0;orthogonalLoop=1;jettySize=auto;html=1;exitX=0.5;exitY=1;exitDx=0;exitDy=0;entryX=0.5;entryY=0;entryDx=0;entryDy=0;entryPerimeter=0;" edge="1" parent="1" source="UburldHWFSXOT04M9yOC-56" target="UburldHWFSXOT04M9yOC-52">
          <mxGeometry relative="1" as="geometry" />
        </mxCell>
        <mxCell id="UburldHWFSXOT04M9yOC-64" style="edgeStyle=orthogonalEdgeStyle;rounded=0;orthogonalLoop=1;jettySize=auto;html=1;exitX=1;exitY=0.5;exitDx=0;exitDy=0;exitPerimeter=0;entryX=0;entryY=0.5;entryDx=0;entryDy=0;" edge="1" parent="1" source="UburldHWFSXOT04M9yOC-60" target="UburldHWFSXOT04M9yOC-63">
          <mxGeometry relative="1" as="geometry" />
        </mxCell>
        <mxCell id="UburldHWFSXOT04M9yOC-65" value="Yes" style="edgeLabel;html=1;align=center;verticalAlign=middle;resizable=0;points=[];" vertex="1" connectable="0" parent="UburldHWFSXOT04M9yOC-64">
          <mxGeometry x="-0.0033" y="2" relative="1" as="geometry">
            <mxPoint x="-2" y="-13" as="offset" />
          </mxGeometry>
        </mxCell>
        <mxCell id="UburldHWFSXOT04M9yOC-60" value="如果Island0 和 Island1不相等" style="strokeWidth=2;html=1;shape=mxgraph.flowchart.decision;whiteSpace=wrap;" vertex="1" parent="1">
          <mxGeometry x="-1636.0600000000002" y="770" width="200" height="110" as="geometry" />
        </mxCell>
        <mxCell id="UburldHWFSXOT04M9yOC-61" style="edgeStyle=orthogonalEdgeStyle;rounded=0;orthogonalLoop=1;jettySize=auto;html=1;exitX=0.5;exitY=1;exitDx=0;exitDy=0;exitPerimeter=0;entryX=0.5;entryY=0;entryDx=0;entryDy=0;entryPerimeter=0;" edge="1" parent="1" source="UburldHWFSXOT04M9yOC-52" target="UburldHWFSXOT04M9yOC-60">
          <mxGeometry relative="1" as="geometry" />
        </mxCell>
        <mxCell id="UburldHWFSXOT04M9yOC-62" value="No" style="edgeLabel;html=1;align=center;verticalAlign=middle;resizable=0;points=[];" vertex="1" connectable="0" parent="UburldHWFSXOT04M9yOC-61">
          <mxGeometry x="0.1774" y="-2" relative="1" as="geometry">
            <mxPoint x="-28" y="-1" as="offset" />
          </mxGeometry>
        </mxCell>
        <mxCell id="UburldHWFSXOT04M9yOC-86" style="edgeStyle=orthogonalEdgeStyle;rounded=0;orthogonalLoop=1;jettySize=auto;html=1;exitX=1;exitY=0.5;exitDx=0;exitDy=0;entryX=0.5;entryY=0;entryDx=0;entryDy=0;" edge="1" parent="1" source="UburldHWFSXOT04M9yOC-63" target="UburldHWFSXOT04M9yOC-83">
          <mxGeometry relative="1" as="geometry">
            <mxPoint x="-1010" y="1290" as="targetPoint" />
          </mxGeometry>
        </mxCell>
        <mxCell id="UburldHWFSXOT04M9yOC-63" value="合并Island0 和 Island1&lt;br&gt;并返回合并后的Island" style="rounded=1;whiteSpace=wrap;html=1;fontSize=12;glass=0;strokeWidth=1;shadow=0;" vertex="1" parent="1">
          <mxGeometry x="-1340.0000000000002" y="802.12" width="134" height="45.77" as="geometry" />
        </mxCell>
        <mxCell id="UburldHWFSXOT04M9yOC-68" style="rounded=0;orthogonalLoop=1;jettySize=auto;html=1;exitX=1;exitY=0.5;exitDx=0;exitDy=0;exitPerimeter=0;entryX=0;entryY=0.5;entryDx=0;entryDy=0;" edge="1" parent="1" source="UburldHWFSXOT04M9yOC-66" target="UburldHWFSXOT04M9yOC-69">
          <mxGeometry relative="1" as="geometry">
            <mxPoint x="-1350" y="1075.037037037037" as="targetPoint" />
          </mxGeometry>
        </mxCell>
        <mxCell id="UburldHWFSXOT04M9yOC-70" value="Yes" style="edgeLabel;html=1;align=center;verticalAlign=middle;resizable=0;points=[];" vertex="1" connectable="0" parent="UburldHWFSXOT04M9yOC-68">
          <mxGeometry x="-0.1762" y="3" relative="1" as="geometry">
            <mxPoint y="-12" as="offset" />
          </mxGeometry>
        </mxCell>
        <mxCell id="UburldHWFSXOT04M9yOC-66" value="Island0不为空，Island1为空" style="strokeWidth=2;html=1;shape=mxgraph.flowchart.decision;whiteSpace=wrap;" vertex="1" parent="1">
          <mxGeometry x="-1636.0600000000002" y="930" width="200" height="110" as="geometry" />
        </mxCell>
        <mxCell id="UburldHWFSXOT04M9yOC-67" style="edgeStyle=orthogonalEdgeStyle;rounded=0;orthogonalLoop=1;jettySize=auto;html=1;exitX=0.5;exitY=1;exitDx=0;exitDy=0;exitPerimeter=0;entryX=0.5;entryY=0;entryDx=0;entryDy=0;entryPerimeter=0;" edge="1" parent="1" source="UburldHWFSXOT04M9yOC-60" target="UburldHWFSXOT04M9yOC-66">
          <mxGeometry relative="1" as="geometry" />
        </mxCell>
        <mxCell id="UburldHWFSXOT04M9yOC-72" value="No" style="edgeLabel;html=1;align=center;verticalAlign=middle;resizable=0;points=[];" vertex="1" connectable="0" parent="UburldHWFSXOT04M9yOC-67">
          <mxGeometry x="-0.1303" y="-3" relative="1" as="geometry">
            <mxPoint x="-10" as="offset" />
          </mxGeometry>
        </mxCell>
        <mxCell id="UburldHWFSXOT04M9yOC-85" style="edgeStyle=orthogonalEdgeStyle;rounded=0;orthogonalLoop=1;jettySize=auto;html=1;exitX=1;exitY=0.5;exitDx=0;exitDy=0;entryX=0.5;entryY=0;entryDx=0;entryDy=0;" edge="1" parent="1" source="UburldHWFSXOT04M9yOC-69" target="UburldHWFSXOT04M9yOC-83">
          <mxGeometry relative="1" as="geometry" />
        </mxCell>
        <mxCell id="UburldHWFSXOT04M9yOC-69" value="将Node1添加到Island0&lt;br&gt;并返回Island0" style="rounded=1;whiteSpace=wrap;html=1;fontSize=12;glass=0;strokeWidth=1;shadow=0;" vertex="1" parent="1">
          <mxGeometry x="-1340.0000000000002" y="962.1199999999999" width="134" height="45.77" as="geometry" />
        </mxCell>
        <mxCell id="UburldHWFSXOT04M9yOC-77" style="edgeStyle=orthogonalEdgeStyle;rounded=0;orthogonalLoop=1;jettySize=auto;html=1;exitX=1;exitY=0.5;exitDx=0;exitDy=0;exitPerimeter=0;" edge="1" parent="1" source="UburldHWFSXOT04M9yOC-71" target="UburldHWFSXOT04M9yOC-76">
          <mxGeometry relative="1" as="geometry" />
        </mxCell>
        <mxCell id="UburldHWFSXOT04M9yOC-78" value="Yes" style="edgeLabel;html=1;align=center;verticalAlign=middle;resizable=0;points=[];" vertex="1" connectable="0" parent="UburldHWFSXOT04M9yOC-77">
          <mxGeometry x="-0.125" y="3" relative="1" as="geometry">
            <mxPoint y="-12" as="offset" />
          </mxGeometry>
        </mxCell>
        <mxCell id="UburldHWFSXOT04M9yOC-81" style="rounded=0;orthogonalLoop=1;jettySize=auto;html=1;exitX=0.5;exitY=1;exitDx=0;exitDy=0;exitPerimeter=0;entryX=0.5;entryY=0;entryDx=0;entryDy=0;" edge="1" parent="1" source="UburldHWFSXOT04M9yOC-71" target="UburldHWFSXOT04M9yOC-80">
          <mxGeometry relative="1" as="geometry" />
        </mxCell>
        <mxCell id="UburldHWFSXOT04M9yOC-71" value="Island1不为空，Island0为空" style="strokeWidth=2;html=1;shape=mxgraph.flowchart.decision;whiteSpace=wrap;" vertex="1" parent="1">
          <mxGeometry x="-1636.0600000000002" y="1090" width="200" height="110" as="geometry" />
        </mxCell>
        <mxCell id="UburldHWFSXOT04M9yOC-73" style="edgeStyle=orthogonalEdgeStyle;rounded=0;orthogonalLoop=1;jettySize=auto;html=1;exitX=0.5;exitY=1;exitDx=0;exitDy=0;exitPerimeter=0;entryX=0.5;entryY=0;entryDx=0;entryDy=0;entryPerimeter=0;" edge="1" parent="1" source="UburldHWFSXOT04M9yOC-66" target="UburldHWFSXOT04M9yOC-71">
          <mxGeometry relative="1" as="geometry" />
        </mxCell>
        <mxCell id="UburldHWFSXOT04M9yOC-74" value="No" style="edgeLabel;html=1;align=center;verticalAlign=middle;resizable=0;points=[];" vertex="1" connectable="0" parent="UburldHWFSXOT04M9yOC-73">
          <mxGeometry x="-0.0942" y="-1" relative="1" as="geometry">
            <mxPoint x="-12" y="7" as="offset" />
          </mxGeometry>
        </mxCell>
        <mxCell id="UburldHWFSXOT04M9yOC-84" style="edgeStyle=orthogonalEdgeStyle;rounded=0;orthogonalLoop=1;jettySize=auto;html=1;exitX=1;exitY=0.5;exitDx=0;exitDy=0;entryX=0.5;entryY=0;entryDx=0;entryDy=0;" edge="1" parent="1" source="UburldHWFSXOT04M9yOC-76" target="UburldHWFSXOT04M9yOC-83">
          <mxGeometry relative="1" as="geometry" />
        </mxCell>
        <mxCell id="UburldHWFSXOT04M9yOC-76" value="将Node0添加到Island1&lt;br&gt;并返回Island1" style="rounded=1;whiteSpace=wrap;html=1;fontSize=12;glass=0;strokeWidth=1;shadow=0;" vertex="1" parent="1">
          <mxGeometry x="-1350.0000000000002" y="1123" width="134" height="45.77" as="geometry" />
        </mxCell>
        <mxCell id="UburldHWFSXOT04M9yOC-82" style="edgeStyle=orthogonalEdgeStyle;rounded=0;orthogonalLoop=1;jettySize=auto;html=1;exitX=1;exitY=0.5;exitDx=0;exitDy=0;entryX=0;entryY=0.5;entryDx=0;entryDy=0;" edge="1" parent="1" source="UburldHWFSXOT04M9yOC-80" target="UburldHWFSXOT04M9yOC-83">
          <mxGeometry relative="1" as="geometry">
            <mxPoint x="-1100" y="1320.347826086957" as="targetPoint" />
          </mxGeometry>
        </mxCell>
        <mxCell id="UburldHWFSXOT04M9yOC-80" value="创建新的Island，并将Node0和Node1添加到里面后返回新Island" style="rounded=1;whiteSpace=wrap;html=1;fontSize=12;glass=0;strokeWidth=1;shadow=0;" vertex="1" parent="1">
          <mxGeometry x="-1627.59" y="1260" width="183.06" height="60" as="geometry" />
        </mxCell>
        <mxCell id="UburldHWFSXOT04M9yOC-83" value="将Edge添加到返回的Island中" style="rounded=1;whiteSpace=wrap;html=1;fontSize=12;glass=0;strokeWidth=1;shadow=0;" vertex="1" parent="1">
          <mxGeometry x="-1080" y="1260" width="183.06" height="60" as="geometry" />
        </mxCell>
      </root>
    </mxGraphModel>
  </diagram>
</mxfile>
